<svg viewBox="0 0 24 24" fill="#FFFFFF" xmlns="http://www.w3.org/2000/svg">
  <path d="M0 0h24v24H0V0z" fill="none"/>
  <path d="M 10.914 12.6 C 10.914 13.014 10.578 13.35 10.164 13.35 C 9.75 13.35 9.414 13.014 9.414 12.6 C 9.414 12.186 9.75 11.85 10.164 11.85 C 10.578 11.85 10.914 12.186 10.914 12.6 Z M 13.764 11.85 C 13.35 11.85 13.014 12.186 13.014 12.6 C 13.014 13.014 13.35 13.35 13.764 13.35 C 14.178 13.35 14.514 13.014 14.514 12.6 C 14.514 12.186 14.178 11.85 13.764 11.85 Z M 17.964 12 C 17.964 15.312 15.276 18 11.964 18 C 8.652 18 5.964 15.312 5.964 12 C 5.964 8.688 8.652 6 11.964 6 C 15.276 6 17.964 8.688 17.964 12 Z M 11.16 7.272 C 12 8.664 13.524 9.6 15.264 9.6 C 15.54 9.6 15.81 9.57 16.068 9.528 C 15.228 8.136 13.704 7.2 11.964 7.2 C 11.688 7.2 11.418 7.23 11.16 7.272 Z M 7.416 10.482 C 8.442 9.9 9.234 8.952 9.612 7.818 C 8.586 8.4 7.794 9.348 7.416 10.482 Z M 16.764 12 C 16.764 11.532 16.692 11.082 16.566 10.656 C 16.146 10.746 15.714 10.8 15.264 10.8 C 13.386 10.8 11.712 9.936 10.608 8.586 C 9.978 10.122 8.724 11.328 7.164 11.916 C 7.17 11.94 7.164 11.97 7.164 12 C 7.164 14.646 9.318 16.8 11.964 16.8 C 14.61 16.8 16.764 14.646 16.764 12 Z" style="opacity: 0.5;" />
</svg>
