<?xml version="1.0" encoding="UTF-8" standalone="no" ?>
<!DOCTYPE svg PUBLIC "-//W3C//DTD SVG 1.1//EN" "http://www.w3.org/Graphics/SVG/1.1/DTD/svg11.dtd">
<svg xmlns="http://www.w3.org/2000/svg" xmlns:xlink="http://www.w3.org/1999/xlink" version="1.1" width="100" height="100" viewBox="0 0 100 100" xml:space="preserve">
<desc>Created with Fabric.js 4.6.0</desc>
<defs>
</defs>
<g transform="matrix(2.63 0 0 2.63 50 50)" id="Ct2t-q5pOz3moVjbaXMgz"  >
<path style="stroke: rgb(155,244,84); stroke-width: 0; stroke-dasharray: none; stroke-linecap: butt; stroke-dashoffset: 0; stroke-linejoin: miter; stroke-miterlimit: 4; fill: rgb(36,36,36); fill-rule: nonzero; opacity: 1;" vector-effect="non-scaling-stroke"  transform=" translate(0, 0)" d="M -18.93939 -10.90409 C -18.93939 -15.34187 -15.34186 -18.93939 -10.90409 -18.93939 L 10.90408 -18.93939 L 10.90408 -18.93939 C 15.34186 -18.93939 18.93938 -15.34186 18.93938 -10.90409 L 18.93938 10.90408 L 18.93938 10.90408 C 18.93938 15.34186 15.34185 18.93938 10.90408 18.93938 L -10.90409 18.93938 L -10.90409 18.93938 C -15.34187 18.93938 -18.93939 15.34185 -18.93939 10.90408 z" stroke-linecap="round" />
</g>
<g transform="matrix(3.21 0 0 3.38 50 50)" id="v05wHBRT7OofmW9uGu1kC"  >
<path style="stroke: none; stroke-width: 1; stroke-dasharray: none; stroke-linecap: butt; stroke-dashoffset: 0; stroke-linejoin: miter; stroke-miterlimit: 4; fill: rgb(255,255,255); fill-rule: nonzero; opacity: 1;" vector-effect="non-scaling-stroke"  transform=" translate(-11, -9.5)" d="M 20.3 9.786 C 22.567 7.542999999999999 22.567 3.9019999999999992 20.3 1.6820000000000004 C 18.031 -0.5609999999999995 14.349 -0.5609999999999995 12.08 1.6820000000000004 L 10.98 2.7920000000000007 L 9.88 1.7040000000000006 C 7.612 -0.56 3.93 -0.56 1.684 1.682 C 0.5976150462572569 2.75375025876366 -0.009674927585470616 4.218963538884209 2.220446049250313e-16 5.745000000000001 C 0.0007231965977004261 7.268982805766324 0.6064171795734477 8.730345426211965 1.684000000000001 9.808 L 10.98 19 L 20.3 9.786 Z M 1.436 5.745 C 1.436 4.59 1.886 3.525 2.716 2.725 C 3.5268996349774833 1.9158083557353947 4.625422217124672 1.4609373028986692 5.770999999999998 1.4599999999999995 C 6.871 1.46 7.971 1.882 8.825 2.7249999999999996 L 10.979999999999999 4.834999999999999 L 13.136 2.702999999999999 C 14.819999999999999 1.037999999999999 17.582 1.037999999999999 19.244 2.702999999999999 C 20.052 3.5029999999999992 20.524 4.567999999999999 20.524 5.722999999999999 C 20.524 6.876999999999999 20.074 7.943 19.244 8.742999999999999 L 10.98 16.935 L 2.7170000000000005 8.764999999999999 C 1.9090000000000005 7.942999999999999 1.4370000000000005 6.876999999999999 1.4370000000000005 5.744999999999999 Z" stroke-linecap="round" />
</g>
</svg>